<?xml version="1.0" standalone="no"?>
<!DOCTYPE svg PUBLIC "-//W3C//DTD SVG 1.1//EN" "http://www.w3.org/Graphics/SVG/1.1/DTD/svg11.dtd" >
<svg xmlns="http://www.w3.org/2000/svg" xmlns:xlink="http://www.w3.org/1999/xlink" version="1.1">
<metadata></metadata>
<defs>
<font id="rns_sanzblack" horiz-adv-x="1075" >
<font-face units-per-em="2048" ascent="1638" descent="-410" />
<missing-glyph horiz-adv-x="440" />
<glyph unicode="&#xfb01;" horiz-adv-x="1318" d="M51 707l62 286h82v185q0 167 97 257.5t277 90.5q99 0 179 -41l28 -266q-67 34 -135 34q-47 0 -72.5 -25t-25.5 -71v-164h684v-993h-348v707h-336v-707h-348v707h-144zM877 1264q0 168 176 168t176 -168t-176 -168t-176 168z" />
<glyph unicode="&#xfb02;" horiz-adv-x="1318" d="M51 707l62 286h82v185q0 167 97 257.5t277 90.5q99 0 179 -41l28 -266q-67 34 -135 34q-47 0 -72.5 -25t-25.5 -71v-164h336v502h348v-1495h-348v707h-336v-707h-348v707h-144z" />
<glyph horiz-adv-x="0" />
<glyph horiz-adv-x="682" />
<glyph unicode=" "  horiz-adv-x="440" />
<glyph unicode="&#x09;" horiz-adv-x="440" />
<glyph unicode="&#xa0;" horiz-adv-x="440" />
<glyph unicode="!" horiz-adv-x="634" d="M92 1413h451l-109 -911h-233zM104 184q0 106 54.5 160.5t160.5 54.5q213 0 213 -215t-213 -215q-106 0 -160.5 54.5t-54.5 160.5z" />
<glyph unicode="&#x22;" horiz-adv-x="1161" d="M82 1372h440l-82 -665h-276zM639 1372h440l-82 -665h-276z" />
<glyph unicode="#" horiz-adv-x="1372" d="M82 276v291h244l39 242h-232l-20 291h299l49 313h205l-50 -313h267l49 313h205l-50 -313h203v-291h-250l-39 -242h238l21 -291h-304l-45 -276h-204l45 276h-267l-45 -276h-204l45 276h-199zM530 567h267l39 242h-267z" />
<glyph unicode="$" horiz-adv-x="1249" d="M61 72l91 358q206 -113 464 -113q142 0 142 80q0 20 -12.5 39t-29.5 33t-50.5 31t-58.5 27.5t-72 29.5q-53 22 -88 38t-87 43t-87 52t-74 62t-62.5 75.5t-39 89.5t-15.5 107q0 163 106.5 265t282.5 138l-20 170h389l-19 -165q221 -27 346 -91l-102 -348q-75 40 -195 71.5 t-208 31.5q-67 0 -103.5 -20.5t-36.5 -57.5q0 -24 16.5 -45.5t52 -43t69 -37t88.5 -38.5q43 -17 68 -27t68 -30t69 -35t63 -40t60 -48t48.5 -55t40 -65.5t24 -76t9.5 -88.5q0 -156 -98 -261t-281 -142l21 -181h-389l20 172q-119 11 -231.5 36.5t-178.5 58.5z" />
<glyph unicode="%" horiz-adv-x="1796" d="M72 1036q0 201 88 304.5t260 103.5t259 -102.5t87 -303.5q0 -203 -87 -306t-259 -103t-260 103t-88 304zM309 1036q0 -213 111 -213q108 0 108 215t-108 215q-111 0 -111 -217zM381 0l813 1413h223l-815 -1413h-221zM1030 375q0 203 87 306t259 103t260 -103t88 -304 t-88 -304.5t-260 -103.5t-259 102.5t-87 303.5zM1268 375q0 -215 108 -215q111 0 111 217q0 213 -111 213q-108 0 -108 -215z" />
<glyph unicode="&#x26;" horiz-adv-x="1343" d="M51 358q0 128 62 232.5t198 191.5q-106 145 -106 310q0 170 108.5 261t319.5 91q213 0 393 -94l-51 -312q-195 95 -293 95q-47 0 -71.5 -20t-24.5 -56q0 -59 57 -131l248 -305q34 108 43 233h309q-30 -297 -139 -492l291 -362h-443l-78 96q-91 -67 -177 -97t-195 -30 q-210 0 -330.5 100.5t-120.5 288.5zM424 410q0 -76 44.5 -117t121.5 -41q68 0 117 51l-220 268q-63 -78 -63 -161z" />
<glyph unicode="'" horiz-adv-x="604" d="M82 1372h440l-82 -665h-276z" />
<glyph unicode="(" horiz-adv-x="768" d="M82 651q0 272 146.5 501.5t385.5 332.5l144 -174q-120 -135 -183 -306.5t-63 -353.5q0 -188 64.5 -383.5t181.5 -326.5l-144 -174q-239 103 -385.5 346t-146.5 538z" />
<glyph unicode=")" horiz-adv-x="768" d="M10 -59q117 131 181.5 326.5t64.5 383.5q0 182 -63 353.5t-183 306.5l144 174q239 -103 385.5 -332.5t146.5 -501.5q0 -295 -146.5 -538t-385.5 -346z" />
<glyph unicode="*" horiz-adv-x="774" d="M51 1153l60 182l192 -78l-12 207h192l-14 -204l195 75l59 -184l-201 -53l137 -160l-155 -115l-115 176l-115 -178l-155 113l131 166z" />
<glyph unicode="+" horiz-adv-x="1167" d="M113 436v297h319v303h305v-303h318v-297h-318v-321h-305v321h-319z" />
<glyph unicode="," horiz-adv-x="550" d="M49 -221l74 610h397l-248 -665z" />
<glyph unicode="-" horiz-adv-x="727" d="M72 451v348h583v-348h-583z" />
<glyph unicode="." horiz-adv-x="571" d="M72 184q0 106 54.5 160.5t160.5 54.5q213 0 213 -215t-213 -215q-106 0 -160.5 54.5t-54.5 160.5z" />
<glyph unicode="/" horiz-adv-x="1146" d="M-72 -276l875 1689h334l-875 -1689h-334z" />
<glyph unicode="0" horiz-adv-x="1300" d="M51 696q0 359 150.5 543t443.5 184q299 0 451.5 -184t152.5 -543t-152.5 -543t-451.5 -184q-293 0 -443.5 184t-150.5 543zM440 696q0 -209 49 -304t156 -95q113 0 164 95t51 304t-51.5 304.5t-163.5 95.5q-107 0 -156 -95.5t-49 -304.5z" />
<glyph unicode="1" horiz-adv-x="860" d="M31 1229l348 174h348v-1403h-389v1024l-266 -109z" />
<glyph unicode="2" horiz-adv-x="1126" d="M72 297q92 74 185.5 162t184 185t147 189t56.5 152q0 53 -43 82t-115 29q-135 0 -333 -121l-62 309q198 139 465 139q236 0 361.5 -103t125.5 -286q0 -85 -28.5 -170.5t-72 -156t-109.5 -144.5t-125.5 -129t-135.5 -117h502v-317h-936z" />
<glyph unicode="3" horiz-adv-x="1136" d="M51 61l41 324q205 -88 354 -88q230 0 230 133q0 145 -266 145h-103l-10 271h123q227 0 227 137q0 113 -196 113q-158 0 -328 -92l-51 296q159 123 454 123q262 0 395.5 -92.5t133.5 -275.5q0 -236 -236 -328q256 -89 256 -338q0 -207 -141.5 -313.5t-417.5 -106.5 q-252 0 -465 92z" />
<glyph unicode="4" horiz-adv-x="1269" d="M31 266v246l563 891h461v-871h184v-266h-184v-266h-389v266h-635zM369 532h297v480z" />
<glyph unicode="5" horiz-adv-x="1136" d="M51 61l41 328q203 -82 385 -82q230 0 230 156q0 143 -183 143q-90 0 -166 -33l-256 41l66 789h850v-318h-553l-14 -194q82 16 170 16q224 0 339 -115t115 -331q0 -481 -579 -481q-226 0 -445 81z" />
<glyph unicode="6" horiz-adv-x="1157" d="M51 551q0 181 63 337t173 267t260 180.5t323 87.5l62 -327q-343 -38 -490 -267l15 -14q136 80 282 80q183 0 285 -111t102 -313q0 -239 -140.5 -370.5t-385.5 -131.5q-264 0 -406.5 154t-142.5 428zM416 440q0 -174 168 -174q164 0 164 174t-164 174q-168 0 -168 -174z " />
<glyph unicode="7" horiz-adv-x="1095" d="M51 1085v318h983v-338l-471 -1065h-418l500 1085h-594z" />
<glyph unicode="8" horiz-adv-x="1220" d="M51 371q0 90 60.5 183t171.5 173q-83 68 -128.5 148t-45.5 159q0 188 130 288.5t371 100.5q233 0 359.5 -96.5t126.5 -275.5q0 -75 -41.5 -154.5t-116.5 -148.5q110 -62 170.5 -152.5t60.5 -196.5q0 -206 -145.5 -318t-413.5 -112t-413.5 105t-145.5 297zM426 410 q6 -164 188 -164q78 0 119 36.5t41 106.5q0 134 -235 205q-113 -75 -113 -184zM467 1024q0 -124 184 -174q103 68 103 174q0 131 -144 131q-143 0 -143 -131z" />
<glyph unicode="9" horiz-adv-x="1167" d="M41 936q0 242 133 364.5t379 122.5q277 0 420 -151.5t143 -427.5q0 -189 -66.5 -348.5t-180 -268t-260.5 -175.5t-312 -83l-61 328q343 38 489 266l-14 15q-136 -80 -283 -80q-188 0 -287.5 115.5t-99.5 322.5zM420 952q0 -174 164 -174q168 0 168 174t-168 174 q-164 0 -164 -174z" />
<glyph unicode=":" horiz-adv-x="591" d="M82 184q0 106 54.5 160.5t160.5 54.5q213 0 213 -215t-213 -215q-106 0 -160.5 54.5t-54.5 160.5zM82 809q0 106 54.5 160.5t160.5 54.5q213 0 213 -215t-213 -215q-106 0 -160.5 54.5t-54.5 160.5z" />
<glyph unicode=";" horiz-adv-x="591" d="M39 -221l74 610h397l-248 -665zM82 809q0 106 54.5 160.5t160.5 54.5q213 0 213 -215t-213 -215q-106 0 -160.5 54.5t-54.5 160.5z" />
<glyph unicode="&#x3c;" horiz-adv-x="1167" d="M113 479v254l942 451v-379l-578 -199l578 -200v-379z" />
<glyph unicode="=" horiz-adv-x="1167" d="M113 213v297h942v-297h-942zM113 664v297h942v-297h-942z" />
<glyph unicode="&#x3e;" horiz-adv-x="1167" d="M113 27v379l577 200l-577 199v379l942 -451v-254z" />
<glyph unicode="?" horiz-adv-x="1036" d="M41 1300q115 68 244.5 106t246.5 38q110 0 201 -34t150 -91.5t91 -130.5t32 -154q0 -155 -117 -265t-332 -157l-12 -120h-238l-26 296q176 45 258 92t82 119q0 51 -38.5 79t-109.5 28q-82 0 -186 -36t-197 -99zM211 184q0 106 54.5 160.5t160.5 54.5q213 0 213 -215 t-213 -215q-106 0 -160.5 54.5t-54.5 160.5z" />
<glyph unicode="@" horiz-adv-x="1769" d="M72 438q0 420 238.5 658.5t672.5 238.5q715 0 715 -680q0 -269 -110 -409t-314 -140q-221 0 -295 168q-80 -87 -149 -127.5t-148 -40.5q-107 0 -164 77.5t-57 230.5q0 252 144 404.5t388 152.5q156 0 326 -72l-70 -448q-4 -28 -4 -48q0 -59 30.5 -89.5t86.5 -30.5 q97 0 147 92.5t50 267.5q0 291 -142 434.5t-438 143.5q-369 0 -568.5 -208.5t-199.5 -572.5q0 -307 149.5 -455.5t460.5 -148.5q240 0 404 82l43 -98q-187 -96 -461 -96q-362 0 -548.5 173.5t-186.5 540.5zM754 471q0 -67 17 -98t58 -31q89 0 142 115l45 288q-9 9 -53 9 q-99 0 -154 -76.5t-55 -206.5z" />
<glyph unicode="A" horiz-adv-x="1589" d="M31 0l483 1413h561l484 -1413h-492l-61 215h-463l-62 -215h-450zM629 522h291l-136 482h-20z" />
<glyph unicode="B" horiz-adv-x="1382" d="M154 0v1413h634q217 0 334 -94.5t117 -269.5q0 -110 -62 -187.5t-176 -109.5q143 -34 221 -122.5t78 -217.5q0 -198 -140.5 -305t-401.5 -107h-604zM584 348h133q69 0 106 31.5t37 89.5q0 60 -37 92.5t-106 32.5h-133v-246zM584 819h133q64 0 98.5 32.5t34.5 92.5 q0 59 -34.5 90t-98.5 31h-133v-246z" />
<glyph unicode="C" horiz-adv-x="1253" d="M92 698q0 358 184.5 552t524.5 194q253 0 401 -96l-133 -334q-135 61 -248 61q-289 0 -289 -377q0 -185 68 -272.5t221 -87.5q136 0 248 61l133 -338q-179 -92 -401 -92q-340 0 -524.5 189.5t-184.5 539.5z" />
<glyph unicode="D" horiz-adv-x="1515" d="M154 0v1413h573q335 0 515.5 -183t180.5 -523t-181 -523.5t-515 -183.5h-573zM584 348h94q146 0 225.5 93.5t79.5 265.5t-79.5 265t-225.5 93h-94v-717z" />
<glyph unicode="E" horiz-adv-x="1239" d="M154 0v1413h952v-348h-522v-182h440v-348h-440v-187h532v-348h-962z" />
<glyph unicode="F" horiz-adv-x="1212" d="M154 0v1413h942v-348h-512v-227h460v-349h-460v-489h-430z" />
<glyph unicode="G" horiz-adv-x="1521" d="M92 698q0 358 184.5 552t524.5 194q248 0 401 -96l-102 -334q-76 32 -138.5 46.5t-140.5 14.5q-289 0 -289 -377q0 -182 71.5 -271t217.5 -89q113 0 172 27v403h396v-616q-107 -88 -260 -135.5t-328 -47.5q-340 0 -524.5 189.5t-184.5 539.5z" />
<glyph unicode="H" horiz-adv-x="1556" d="M154 0v1413h430v-528h389v528h430v-1413h-430v537h-389v-537h-430z" />
<glyph unicode="I" horiz-adv-x="737" d="M154 0v1413h430v-1413h-430z" />
<glyph unicode="J" horiz-adv-x="966" d="M41 352q68 -14 158 -14q93 0 143.5 56t50.5 159v860h430v-860q0 -280 -162.5 -432t-461.5 -152q-68 0 -136 11z" />
<glyph unicode="K" horiz-adv-x="1505" d="M154 0v1413h430v-573h20l328 573h491l-428 -674l469 -739h-501l-359 602h-20v-602h-430z" />
<glyph unicode="L" horiz-adv-x="1095" d="M154 0v1413h430v-1065h440v-348h-870z" />
<glyph unicode="M" horiz-adv-x="1832" d="M123 0l41 1413h502l245 -635h21l256 635h491l41 -1413h-430l-20 696h-21l-205 -471h-290l-201 471h-21l-20 -696h-389z" />
<glyph unicode="N" horiz-adv-x="1556" d="M154 0v1413h430l368 -635h21v635h430v-1413h-389l-410 696h-20v-696h-430z" />
<glyph unicode="O" horiz-adv-x="1601" d="M92 698q0 358 184.5 552t524.5 194t524 -194t184 -552q0 -350 -184 -539.5t-524 -189.5t-524.5 189.5t-184.5 539.5zM532 698q0 -178 68.5 -269t200.5 -91t200 91t68 269q0 186 -68 281.5t-200 95.5t-200.5 -95.5t-68.5 -281.5z" />
<glyph unicode="P" horiz-adv-x="1341" d="M154 0v1413h512q290 0 447 -131.5t157 -374.5q0 -244 -157 -376t-447 -132h-82v-399h-430zM584 748h71q83 0 128.5 41.5t45.5 117.5q0 75 -45.5 116.5t-128.5 41.5h-71v-317z" />
<glyph unicode="Q" horiz-adv-x="1601" d="M92 698q0 358 184.5 552t524.5 194t524 -194t184 -552q0 -432 -276 -614l188 -23l-65 -286l-490 196q-20 -2 -65 -2q-340 0 -524.5 189.5t-184.5 539.5zM532 698q0 -173 70 -266.5t199 -93.5t198.5 93.5t69.5 266.5q0 181 -69.5 279t-198.5 98t-199 -98t-70 -279z" />
<glyph unicode="R" horiz-adv-x="1382" d="M154 0v1413h512q290 0 447 -131.5t157 -374.5q0 -306 -242 -432l334 -475h-471l-221 399h-4h-82v-399h-430zM584 748h71q83 0 128.5 41.5t45.5 117.5q0 75 -45.5 116.5t-128.5 41.5h-71v-317z" />
<glyph unicode="S" horiz-adv-x="1249" d="M61 72l91 358q206 -113 464 -113q142 0 142 80q0 20 -12.5 39t-29.5 33t-50.5 31t-58.5 27.5t-72 29.5q-53 22 -88 38t-87 43t-87 52t-74 62t-62.5 75.5t-39 89.5t-15.5 107q0 104 46 186t125.5 132t180.5 76t217 26q131 0 281 -29.5t235 -73.5l-102 -348 q-75 40 -195 71.5t-208 31.5q-67 0 -103.5 -20.5t-36.5 -57.5q0 -24 16.5 -45.5t52 -43t69 -37t88.5 -38.5q43 -17 68 -27t68 -30t69 -35t63 -40t60 -48t48.5 -55t40 -65.5t24 -76t9.5 -88.5q0 -195 -149 -307.5t-422 -112.5q-143 0 -309.5 29.5t-256.5 73.5z" />
<glyph unicode="T" horiz-adv-x="1249" d="M61 1065v348h1127v-348h-348v-1065h-430v1065h-349z" />
<glyph unicode="U" horiz-adv-x="1536" d="M143 573v840h430v-860q0 -103 50.5 -159t144.5 -56t144.5 56t50.5 159v860h430v-840q0 -290 -162.5 -447t-462.5 -157t-462.5 157t-162.5 447z" />
<glyph unicode="V" horiz-adv-x="1466" d="M31 1413h450l252 -921h21l252 921h430l-463 -1413h-510z" />
<glyph unicode="W" horiz-adv-x="2035" d="M31 1413h471l164 -788h20l174 788h406l168 -788h20l152 788h399l-360 -1413h-453l-164 758h-20l-170 -758h-447z" />
<glyph unicode="X" horiz-adv-x="1474" d="M41 0l426 715l-426 698h491l199 -381h21l200 381h420l-399 -655l461 -758h-482l-235 430h-21l-225 -430h-430z" />
<glyph unicode="Y" horiz-adv-x="1515" d="M31 1413h481l246 -522h20l256 522h451l-512 -921v-492h-430v492z" />
<glyph unicode="Z" horiz-adv-x="1310" d="M102 0v328l592 737h-571v348h1085v-307l-600 -758h621v-348h-1127z" />
<glyph unicode="[" horiz-adv-x="851" d="M133 -215v1628h658v-215h-310v-1198h310v-215h-658z" />
<glyph unicode="\" horiz-adv-x="1146" d="M10 1413h334l875 -1689h-334z" />
<glyph unicode="]" horiz-adv-x="851" d="M61 0h310v1198h-310v215h658v-1628h-658v215z" />
<glyph unicode="^" horiz-adv-x="1028" d="M20 707l332 706h324l332 -706h-318l-176 462l-176 -462h-318z" />
<glyph unicode="_" horiz-adv-x="937" d="M0 -68h938v-147h-938v147z" />
<glyph unicode="`" horiz-adv-x="1228" d="M10 1331l482 72l112 -318h-266z" />
<glyph unicode="a" horiz-adv-x="1038" d="M55 260q0 183 143.5 279t409.5 96v43q0 80 -137 80q-150 0 -315 -74l-64 236q90 48 212 76t233 28q207 0 313 -102.5t106 -296.5v-625h-299l-20 111q-114 -142 -295 -142q-135 0 -211 78t-76 213zM414 324q0 -50 26.5 -78.5t75.5 -28.5q56 0 92 41v203q-194 0 -194 -137z " />
<glyph unicode="b" horiz-adv-x="1132" d="M92 0v1495h348v-561q39 43 104 66.5t142 23.5q188 0 286.5 -134.5t98.5 -383.5q0 -255 -99.5 -396t-273.5 -141q-89 0 -159 40.5t-125 131.5l-35 -141h-287zM440 301q51 -45 117 -45q75 0 115.5 62.5t40.5 179.5q0 116 -40.5 177.5t-115.5 61.5q-68 0 -117 -43v-393z" />
<glyph unicode="c" horiz-adv-x="929" d="M61 498q0 252 129 389t367 137q220 0 328 -94l-92 -254q-88 61 -185 61q-198 0 -198 -239q0 -242 188 -242q88 0 207 78l84 -266q-119 -99 -330 -99q-239 0 -368.5 137.5t-129.5 391.5z" />
<glyph unicode="d" horiz-adv-x="1132" d="M61 506q0 249 98.5 383.5t286.5 134.5q77 0 142 -23.5t104 -66.5v561h348v-1495h-286l-35 141q-105 -172 -285 -172q-174 0 -273.5 141t-99.5 396zM420 498q0 -117 40 -179.5t115 -62.5q69 0 117 45v393q-49 43 -117 43q-75 0 -115 -61t-40 -178z" />
<glyph unicode="e" d="M61 498q0 252 129 389t367 137q220 0 338.5 -127t118.5 -362q0 -83 -10 -134h-586q0 -69 59 -107t166 -38q175 0 313 61l31 -256q-162 -92 -428 -92q-239 0 -368.5 137.5t-129.5 391.5zM418 584h239q0 74 -30.5 113.5t-87.5 39.5q-58 0 -89.5 -39.5t-31.5 -113.5z" />
<glyph unicode="f" horiz-adv-x="806" d="M51 707l62 286h82v185q0 167 97 257.5t277 90.5q99 0 179 -41l28 -266q-67 34 -135 34q-47 0 -72.5 -25t-25.5 -71v-164h184v-286h-184v-707h-348v707h-144z" />
<glyph unicode="g" d="M10 -141q0 74 30 124.5t99 98.5q-49 30 -49 125q0 55 43.5 99t120.5 69q-166 90 -166 295q0 170 115 262t329 92q202 0 314 -80l176 82l53 -213l-112 -25q16 -59 16 -118q0 -169 -116 -261t-331 -92q-149 0 -149 -47q0 -16 21 -25.5t79 -14.5t164 -5q199 0 304.5 -73 t105.5 -213q0 -171 -144 -260t-419 -89q-228 0 -356 69.5t-128 199.5zM297 -57q0 -48 74.5 -74.5t195.5 -26.5q64 0 103 14t39 38q0 37 -55.5 46t-162 16t-180.5 32q-14 -19 -14 -45zM416 676q0 -69 32 -106.5t91 -37.5t91 37.5t32 106.5t-32 106t-91 37t-91 -37t-32 -106z " />
<glyph unicode="h" d="M92 0v1495h348v-600q132 129 285 129q121 0 194.5 -70t73.5 -186v-768h-348v614q0 46 -25 74.5t-65 28.5q-27 0 -59.5 -19t-55.5 -49v-649h-348z" />
<glyph unicode="i" horiz-adv-x="532" d="M90 1264q0 168 176 168t176 -168t-176 -168t-176 168zM92 0v993h348v-993h-348z" />
<glyph unicode="j" horiz-adv-x="532" d="M-90 -115q27 -8 72 -8q110 0 110 94v1022h348v-1022q0 -189 -98.5 -285t-292.5 -96q-53 0 -94 13zM90 1264q0 168 176 168t176 -168t-176 -168t-176 168z" />
<glyph unicode="k" horiz-adv-x="1105" d="M92 0v1495h348v-840h21l205 338h409l-323 -458l323 -535h-399l-215 410h-21v-410h-348z" />
<glyph unicode="l" horiz-adv-x="532" d="M92 0v1495h348v-1495h-348z" />
<glyph unicode="m" horiz-adv-x="1628" d="M92 0v993h287l24 -139q150 170 322 170q96 0 162.5 -44.5t91.5 -123.5q35 74 120.5 121t178.5 47q121 0 194.5 -70t73.5 -186v-768h-348v614q0 46 -25 74.5t-65 28.5q-27 0 -59.5 -19t-55.5 -49v-649h-348v614q0 46 -25 74.5t-65 28.5q-27 0 -59.5 -19t-55.5 -49v-649 h-348z" />
<glyph unicode="n" d="M92 0v993h287l24 -139q150 170 322 170q121 0 194.5 -70t73.5 -186v-768h-348v614q0 46 -25 74.5t-65 28.5q-27 0 -59.5 -19t-55.5 -49v-649h-348z" />
<glyph unicode="o" horiz-adv-x="1126" d="M61 498q0 252 130.5 389t371.5 137t371.5 -137t130.5 -389q0 -254 -130.5 -391.5t-371.5 -137.5t-371.5 137.5t-130.5 391.5zM410 498q0 -242 153 -242q154 0 154 242q0 239 -154 239q-153 0 -153 -239z" />
<glyph unicode="p" horiz-adv-x="1132" d="M92 -410v1403h287l24 -106q38 68 114 102.5t169 34.5q76 0 144.5 -34t122.5 -97t86 -163.5t32 -223.5q0 -255 -99.5 -396t-273.5 -141q-158 0 -258 133v-512h-348zM440 301q51 -45 117 -45q75 0 115.5 62.5t40.5 179.5q0 116 -40.5 177.5t-115.5 61.5q-68 0 -117 -43 v-393z" />
<glyph unicode="q" horiz-adv-x="1132" d="M61 506q0 249 98.5 383.5t286.5 134.5q98 0 173 -35.5t108 -105.5l27 110h286v-1403h-348v512q-100 -133 -258 -133q-174 0 -273.5 141t-99.5 396zM420 498q0 -117 40 -179.5t115 -62.5q69 0 117 45v393q-49 43 -117 43q-75 0 -115 -61t-40 -178z" />
<glyph unicode="r" horiz-adv-x="788" d="M92 0v993h287l31 -131q145 162 315 162l33 -287q-92 0 -179.5 -24t-138.5 -64v-649h-348z" />
<glyph unicode="s" horiz-adv-x="962" d="M72 72l20 297q77 -50 202 -87.5t212 -37.5q88 0 88 51q0 8 -2.5 15t-9 13.5t-13 11.5t-18 10t-20.5 9t-25 9t-27 8t-30 8.5t-31 9.5q-56 17 -95.5 31t-90.5 41.5t-83 59t-54.5 80t-22.5 106.5q0 162 100.5 239.5t273.5 77.5q180 0 424 -82l-20 -276q-79 37 -184.5 68.5 t-171.5 31.5q-74 0 -74 -43q0 -9 3.5 -16t11.5 -12.5t16 -9.5t23 -9t26.5 -8t32.5 -8t34 -9q44 -13 76 -25t76 -32t74.5 -44.5t59.5 -57.5t43.5 -77.5t14.5 -97.5q0 -89 -35 -157.5t-97 -109.5t-141 -61t-173 -20q-112 0 -217 27t-176 76z" />
<glyph unicode="t" horiz-adv-x="784" d="M31 707l61 286h82v328h348v-328h185v-286h-185v-369q0 -96 99 -96q48 0 73 14l70 -233q-108 -54 -215 -54q-180 0 -277.5 90.5t-97.5 257.5v390h-143z" />
<glyph unicode="u" horiz-adv-x="1077" d="M84 225v768h348v-614q0 -46 25 -74.5t65 -28.5q27 0 59.5 19t55.5 49v649h348v-993h-287l-24 139q-150 -170 -322 -170q-121 0 -194.5 70t-73.5 186z" />
<glyph unicode="v" horiz-adv-x="1095" d="M20 993h390l161 -565l146 565h358l-348 -993h-379z" />
<glyph unicode="w" horiz-adv-x="1529" d="M20 993h379l103 -532l123 532h327l113 -530l102 530h342l-286 -993h-353l-112 487l-113 -487h-369z" />
<glyph unicode="x" horiz-adv-x="1064" d="M20 0l308 492l-308 501h400l125 -229l133 229h336l-287 -450l317 -543h-389l-141 250l-145 -250h-349z" />
<glyph unicode="y" horiz-adv-x="1095" d="M20 993h390l161 -565l146 565h358l-348 -993q-144 -410 -457 -410q-61 0 -147 13l-45 282q27 -8 72 -8q206 0 219 123z" />
<glyph unicode="z" horiz-adv-x="983" d="M72 0v287l432 420h-432v286h839v-286l-426 -420h447v-287h-860z" />
<glyph unicode="{" horiz-adv-x="946" d="M41 496v211h55q146 0 146 186q0 26 -4.5 118.5t-4.5 116.5q0 137 85 211t227 74h340v-211h-127q-142 0 -142 -131q0 -15 3.5 -91.5t3.5 -100.5q0 -109 -53.5 -177t-172.5 -100v-4q118 -32 172 -101t54 -178q0 -23 -3.5 -99t-3.5 -91q0 -129 142 -129h127v-213h-340 q-142 0 -227 74t-85 211q0 27 4.5 119.5t4.5 117.5q0 187 -146 187h-55z" />
<glyph unicode="|" horiz-adv-x="649" d="M174 -358v1935h307v-1935h-307z" />
<glyph unicode="}" horiz-adv-x="946" d="M61 0h127q142 0 142 129q0 15 -3 91t-3 99q0 110 53.5 178.5t171.5 100.5v4q-119 31 -172 99.5t-53 177.5q0 24 3 100.5t3 91.5q0 131 -142 131h-127v211h340q142 0 227 -74t85 -211q0 -24 -4 -116.5t-4 -118.5q0 -186 145 -186h55v-211h-55q-145 0 -145 -187 q0 -25 4 -117.5t4 -119.5q0 -137 -85 -211t-227 -74h-340v213z" />
<glyph unicode="~" horiz-adv-x="1138" d="M113 582q56 94 133.5 143t165.5 49q50 0 157 -35q128 -39 179 -39q79 0 159 64l119 -166q-132 -188 -291 -188q-65 0 -176 39q-121 34 -162 34q-100 0 -164 -67z" />
<glyph unicode="&#xa1;" horiz-adv-x="634" d="M92 -410l109 942h233l109 -942h-451zM104 850q0 106 54.5 160.5t160.5 54.5q213 0 213 -215t-213 -215q-106 0 -160.5 54.5t-54.5 160.5z" />
<glyph unicode="&#xa2;" horiz-adv-x="929" d="M61 713q0 212 91.5 343t263.5 169l-23 188h307l-22 -182q133 -21 207 -86l-92 -254q-88 61 -185 61q-198 0 -198 -239q0 -242 188 -242q88 0 207 78l84 -266q-77 -66 -211 -88l22 -195h-307l23 199q-172 38 -263.5 169.5t-91.5 344.5z" />
<glyph unicode="&#xa3;" horiz-adv-x="1155" d="M92 0v236q126 160 166 311h-166v307h164q-12 86 -12 160q0 214 125.5 322t371.5 108q165 0 322 -68l-47 -323q-137 55 -242 55q-158 0 -158 -147q0 -13 1 -49t1 -58h359l-45 -307h-328q-25 -147 -82 -240h529v-307h-959z" />
<glyph unicode="&#xa4;" horiz-adv-x="1130" d="M51 330l178 133q-36 76 -36 192q0 117 36 193l-178 133l189 188l135 -180q78 35 188 35q112 0 193 -35l135 180l188 -188l-180 -135q35 -81 35 -191q0 -109 -35 -190l180 -135l-188 -189l-135 181q-81 -35 -193 -35q-110 0 -188 35l-135 -181zM436 655q0 -141 127 -141 t127 141q0 142 -127 142t-127 -142z" />
<glyph unicode="&#xa5;" horiz-adv-x="1495" d="M31 1413h461l245 -522h21l256 522h450l-452 -815h248v-149h-308v-117h308v-150h-308v-182h-409v182h-307v150h307v117h-307v149h247z" />
<glyph unicode="&#xa6;" horiz-adv-x="655" d="M174 -358v798h307v-798h-307zM174 809v768h307v-768h-307z" />
<glyph unicode="&#xa7;" horiz-adv-x="1050" d="M61 690q0 62 18.5 111.5t45 81t72.5 71.5q-62 80 -62 183q0 145 121.5 226t298.5 81q144 0 307 -45l-47 -273q-50 26 -114.5 44t-116.5 18q-47 0 -78 -15.5t-31 -39.5q0 -9 7 -18t21.5 -18.5t28.5 -17t36.5 -16.5t36 -14.5t36 -14t29.5 -10.5q33 -12 50 -18.5t49 -19.5 t49.5 -22.5t44.5 -25.5t42 -31t33.5 -36t28 -43t16 -50t6.5 -59q0 -75 -27.5 -136.5t-105.5 -127.5q66 -66 66 -179q0 -148 -122.5 -227.5t-348.5 -79.5q-111 0 -261 43l43 277q50 -28 115 -46t119 -18q47 0 79 15t32 41q0 29 -42 50.5t-131 53.5l-18 6q-43 15 -65.5 23 t-62.5 25.5t-63 32t-52.5 38.5t-44.5 48.5t-26.5 58.5t-11.5 73zM344 770q0 -18 9 -32.5t21 -24.5t36.5 -20.5t44.5 -17t56 -18.5l60 -20q59 -22 115 -51q16 32 16 55q0 20 -11 37.5t-24.5 28t-43 23.5t-47 18.5t-56.5 17.5q-116 37 -158 65q-18 -37 -18 -61z" />
<glyph unicode="&#xa8;" horiz-adv-x="1228" d="M113 1264q0 168 176 168t176 -168t-176 -168t-176 168zM551 1264q0 168 176 168t176 -168t-176 -168t-176 168z" />
<glyph unicode="&#xa9;" horiz-adv-x="1689" d="M63 707q0 353 197 545t561 192q362 0 559 -192t197 -545t-197 -545.5t-559 -192.5q-364 0 -561 192.5t-197 545.5zM203 707q0 -307 159 -465t459 -158t458.5 158t158.5 465t-158.5 464.5t-458.5 157.5t-459 -157.5t-159 -464.5zM436 713q0 206 108 310.5t322 104.5 q131 0 246 -47l-35 -227q-105 57 -190 57q-168 0 -168 -196q0 -201 188 -201q83 0 187 49l32 -209q-120 -57 -256 -57q-215 0 -324.5 105t-109.5 311z" />
<glyph unicode="&#xaa;" horiz-adv-x="835" d="M92 936q0 216 389 240v14q0 82 -110 82q-80 0 -195 -47l-45 166q127 53 299 53q295 0 295 -236v-436h-219l-14 84q-111 -100 -220 -100q-89 0 -134.5 46t-45.5 134zM100 502v162h625v-162h-625zM328 973q0 -58 51 -58q52 0 102 41v121q-153 -21 -153 -104z" />
<glyph unicode="&#xab;" horiz-adv-x="1222" d="M31 496l305 497h307l-211 -497l211 -496h-307zM549 496l295 497h317l-211 -497l211 -496h-317z" />
<glyph unicode="&#xac;" horiz-adv-x="1167" d="M113 559v297h942v-577h-236v280h-706z" />
<glyph unicode="&#xad;" horiz-adv-x="727" d="M72 451v348h583v-348h-583z" />
<glyph unicode="&#xae;" horiz-adv-x="1155" d="M92 946q0 239 126.5 368.5t359.5 129.5t359 -129.5t126 -368.5q0 -238 -126 -366.5t-359 -128.5t-359.5 128.5t-126.5 366.5zM201 946q0 -195 95.5 -295t281.5 -100t281 100t95 295q0 196 -95 296.5t-281 100.5t-281.5 -100.5t-95.5 -296.5zM373 700v525h219 q103 0 159 -44t56 -126q0 -43 -23.5 -81.5t-66.5 -64.5l119 -209h-189l-76 168h-32v-168h-166zM539 973h30q37 0 56.5 18.5t19.5 52.5q0 32 -19.5 50t-56.5 18h-30v-139z" />
<glyph unicode="&#xaf;" horiz-adv-x="1228" d="M215 1085v267h553v-267h-553z" />
<glyph unicode="&#xb0;" horiz-adv-x="925" d="M92 1075q0 166 102 267.5t269 101.5t269 -101.5t102 -267.5t-102 -267t-269 -101t-269 101t-102 267zM295 1075q0 -82 46.5 -132t121.5 -50t121.5 50t46.5 132t-46.5 132t-121.5 50t-121.5 -50t-46.5 -132z" />
<glyph unicode="&#xb1;" horiz-adv-x="1167" d="M113 0v297h942v-297h-942zM113 539v297h319v200h305v-200h318v-297h-318v-179h-305v179h-319z" />
<glyph unicode="&#xb2;" horiz-adv-x="722" d="M72 838q71 56 135.5 114t122 129t57.5 113q0 27 -22 42t-60 15q-76 0 -186 -67l-35 184q107 76 262 76q136 0 207.5 -58t71.5 -161q0 -58 -21.5 -112.5t-64.5 -104.5t-78.5 -82.5t-91.5 -77.5h272v-189h-530z" />
<glyph unicode="&#xb3;" horiz-adv-x="714" d="M51 680l25 192q113 -49 196 -49q123 0 123 68q0 74 -141 74h-59l-7 159h72q119 0 119 70q0 57 -105 57q-85 0 -182 -51l-31 176q89 68 258 68q304 0 304 -207q0 -129 -131 -182q141 -53 141 -189q0 -237 -318 -237q-140 0 -264 51z" />
<glyph unicode="&#xb4;" horiz-adv-x="1228" d="M215 1085l139 318l414 -55l-307 -263h-246z" />
<glyph unicode="&#xb5;" horiz-adv-x="1146" d="M133 -410v1403h348v-614q0 -103 90 -103q65 0 115 68v649h348v-993h-286l-27 152q-50 -183 -215 -183q-101 0 -154 92l68 -471h-287z" />
<glyph unicode="&#xb6;" horiz-adv-x="1153" d="M72 942q0 226 140.5 348.5t401.5 122.5h406v-1413h-195v1270h-141v-1270h-195v459q-201 31 -309 156.5t-108 326.5z" />
<glyph unicode="&#xb7;" horiz-adv-x="612" d="M92 604q0 106 54.5 160.5t160.5 54.5q213 0 213 -215t-213 -215q-106 0 -160.5 54.5t-54.5 160.5z" />
<glyph unicode="&#xb8;" horiz-adv-x="1228" d="M113 -365l41 82q44 -18 84 -18q43 0 69.5 16t26.5 43q0 22 -17.5 34.5t-46.5 12.5q-37 0 -67 -12l-31 33l53 174h154l-51 -104q8 2 28 2q68 0 109 -34t41 -95q0 -79 -65.5 -129t-166.5 -50q-96 0 -161 45z" />
<glyph unicode="&#xb9;" horiz-adv-x="598" d="M31 1335l196 99h207v-775h-231v549l-148 -59z" />
<glyph unicode="&#xba;" horiz-adv-x="837" d="M72 1090q0 175 87 264.5t259 89.5t260 -89.5t88 -264.5t-88 -265t-260 -90q-171 0 -258.5 90t-87.5 265zM90 502v162h658v-162h-658zM311 1090q0 -166 107 -166q108 0 108 166q0 165 -108 165q-107 0 -107 -165z" />
<glyph unicode="&#xbb;" horiz-adv-x="1222" d="M61 0l211 496l-211 497h318l295 -497l-295 -496h-318zM580 0l211 496l-211 497h307l305 -497l-305 -496h-307z" />
<glyph unicode="&#xbc;" horiz-adv-x="1581" d="M61 1335l197 99h207v-787h-232v561l-147 -59zM268 0l813 1413h224l-816 -1413h-221zM866 133v146l310 495h272v-483h102v-158h-102v-133h-229v133h-353zM1065 291h154v252z" />
<glyph unicode="&#xbd;" horiz-adv-x="1628" d="M61 1335l197 99h207v-787h-232v561l-147 -59zM248 0l813 1413h223l-815 -1413h-221zM977 178q71 56 135.5 114.5t122 129.5t57.5 113q0 27 -22 42t-60 15q-74 0 -186 -68l-35 185q106 75 262 75q136 0 207.5 -58t71.5 -161q0 -58 -21.5 -112.5t-64.5 -104.5t-78.5 -82.5 t-91.5 -77.5h272v-188h-530z" />
<glyph unicode="&#xbe;" horiz-adv-x="1630" d="M61 680l25 192q113 -49 197 -49q123 0 123 68q0 74 -142 74h-59l-6 159h71q119 0 119 70q0 57 -104 57q-86 0 -183 -51l-30 176q89 68 258 68q303 0 303 -207q0 -129 -131 -182q141 -53 141 -189q0 -237 -317 -237q-141 0 -265 51zM317 0l813 1413h224l-815 -1413h-222z M915 133v146l310 495h272v-483h102v-158h-102v-133h-229v133h-353zM1114 291h154v252z" />
<glyph unicode="&#xbf;" horiz-adv-x="954" d="M10 0q0 155 117 265t332 157l12 121h238l26 -297q-176 -45 -258 -92t-82 -119q0 -51 38.5 -79t109.5 -28q82 0 186 36t197 99l49 -329q-114 -68 -244.5 -106t-247.5 -38q-110 0 -201 34t-149.5 91.5t-90.5 130.5t-32 154zM377 850q0 215 213 215q106 0 160.5 -54.5 t54.5 -160.5t-54.5 -160.5t-160.5 -54.5q-213 0 -213 215z" />
<glyph unicode="&#xc0;" horiz-adv-x="1589" d="M31 0l483 1413h561l484 -1413h-492l-61 215h-463l-62 -215h-450zM389 1751l481 72l113 -318h-266zM629 522h291l-136 482h-20z" />
<glyph unicode="&#xc1;" horiz-adv-x="1589" d="M31 0l483 1413h561l484 -1413h-492l-61 215h-463l-62 -215h-450zM614 1505l140 318l413 -56l-307 -262h-246zM629 522h291l-136 482h-20z" />
<glyph unicode="&#xc2;" horiz-adv-x="1589" d="M31 0l483 1413h561l484 -1413h-492l-61 215h-463l-62 -215h-450zM440 1505l201 318h295l201 -318h-226l-123 121l-122 -121h-226zM629 522h291l-136 482h-20z" />
<glyph unicode="&#xc3;" horiz-adv-x="1589" d="M31 0l483 1413h561l484 -1413h-492l-61 215h-463l-62 -215h-450zM430 1526q0 295 191 295q61 0 165.5 -34t126.5 -34q28 0 53.5 22.5t37.5 57.5l143 -31q-6 -135 -63 -217t-146 -82q-49 0 -139.5 33t-122.5 33q-28 0 -50.5 -23t-31.5 -61zM629 522h291l-136 482h-20z" />
<glyph unicode="&#xc4;" horiz-adv-x="1589" d="M31 0l483 1413h561l484 -1413h-492l-61 215h-463l-62 -215h-450zM393 1683q0 168 176 168t176 -168q0 -167 -176 -167t-176 167zM629 522h291l-136 482h-20zM831 1683q0 83 45 125.5t132 42.5q176 0 176 -168q0 -167 -176 -167q-177 0 -177 167z" />
<glyph unicode="&#xc5;" horiz-adv-x="1589" d="M31 0l483 1413h561l484 -1413h-492l-61 215h-463l-62 -215h-450zM512 1702q0 109 73.5 171t202.5 62t203 -62t74 -171q0 -110 -74 -174t-203 -64t-202.5 64t-73.5 174zM629 522h291l-136 482h-20zM696 1702q0 -44 24 -69t68 -25t68.5 25t24.5 69q0 43 -24.5 66.5 t-68.5 23.5t-68 -23.5t-24 -66.5z" />
<glyph unicode="&#xc6;" horiz-adv-x="2054" d="M31 0l762 1413h227h901v-348h-522v-182h440v-348h-440v-187h532v-348h-962v215h-400l-102 -215h-436zM717 522h252v482h-21z" />
<glyph unicode="&#xc7;" horiz-adv-x="1253" d="M92 698q0 358 184.5 552t524.5 194q253 0 401 -96l-133 -334q-135 61 -248 61q-289 0 -289 -377q0 -185 68 -272.5t221 -87.5q136 0 248 61l133 -338q-173 -89 -387 -92l-37 -73q8 2 29 2q68 0 108.5 -34t40.5 -95q0 -79 -65.5 -129t-165.5 -50q-97 0 -162 45l41 82 q44 -18 84 -18q43 0 69.5 16t26.5 43q0 22 -17 34.5t-46 12.5q-38 0 -68 -12l-30 33l47 151q-279 35 -428.5 221t-149.5 500z" />
<glyph unicode="&#xc8;" horiz-adv-x="1239" d="M154 0v1413h952v-348h-522v-182h440v-348h-440v-187h532v-348h-962zM225 1751l482 72l112 -318h-266z" />
<glyph unicode="&#xc9;" horiz-adv-x="1239" d="M154 0v1413h952v-348h-522v-182h440v-348h-440v-187h532v-348h-962zM451 1505l139 318l414 -56l-308 -262h-245z" />
<glyph unicode="&#xca;" horiz-adv-x="1239" d="M154 0v1413h952v-348h-522v-182h440v-348h-440v-187h532v-348h-962zM276 1505l201 318h295l201 -318h-225l-123 121l-123 -121h-226z" />
<glyph unicode="&#xcb;" horiz-adv-x="1239" d="M154 0v1413h952v-348h-522v-182h440v-348h-440v-187h532v-348h-962zM229 1683q0 83 45 125.5t132 42.5q176 0 176 -168q0 -167 -176 -167q-177 0 -177 167zM668 1683q0 168 176 168t176 -168q0 -167 -176 -167t-176 167z" />
<glyph unicode="&#xcc;" horiz-adv-x="737" d="M-31 1751l482 72l112 -318h-266zM154 0v1413h430v-1413h-430z" />
<glyph unicode="&#xcd;" horiz-adv-x="737" d="M154 0v1413h430v-1413h-430zM195 1505l139 318l414 -56l-308 -262h-245z" />
<glyph unicode="&#xce;" horiz-adv-x="737" d="M20 1505l201 318h295l201 -318h-225l-123 121l-123 -121h-226zM154 0v1413h430v-1413h-430z" />
<glyph unicode="&#xcf;" horiz-adv-x="737" d="M-27 1683q0 83 45 125.5t132 42.5q176 0 176 -168q0 -167 -176 -167q-177 0 -177 167zM154 0v1413h430v-1413h-430zM412 1683q0 168 176 168t176 -168q0 -167 -176 -167t-176 167z" />
<glyph unicode="&#xd0;" horiz-adv-x="1515" d="M31 563v287h123v563h573q335 0 515.5 -183t180.5 -523t-181 -523.5t-515 -183.5h-573v563h-123zM584 348h94q146 0 225.5 93.5t79.5 265.5t-79.5 265t-225.5 93h-94v-215h204v-287h-204v-215z" />
<glyph unicode="&#xd1;" horiz-adv-x="1556" d="M154 0v1413h430l368 -635h21v635h430v-1413h-389l-410 696h-20v-696h-430zM420 1526q0 295 190 295q61 0 166 -34t127 -34q28 0 53 22.5t37 57.5l144 -31q-6 -135 -63 -217t-146 -82q-49 0 -139.5 33t-122.5 33q-28 0 -50.5 -23t-31.5 -61z" />
<glyph unicode="&#xd2;" horiz-adv-x="1601" d="M92 698q0 358 184.5 552t524.5 194t524 -194t184 -552q0 -350 -184 -539.5t-524 -189.5t-524.5 189.5t-184.5 539.5zM401 1751l482 72l112 -318h-266zM532 698q0 -178 68.5 -269t200.5 -91t200 91t68 269q0 186 -68 281.5t-200 95.5t-200.5 -95.5t-68.5 -281.5z" />
<glyph unicode="&#xd3;" horiz-adv-x="1601" d="M92 698q0 358 184.5 552t524.5 194t524 -194t184 -552q0 -350 -184 -539.5t-524 -189.5t-524.5 189.5t-184.5 539.5zM532 698q0 -178 68.5 -269t200.5 -91t200 91t68 269q0 186 -68 281.5t-200 95.5t-200.5 -95.5t-68.5 -281.5zM627 1505l139 318l414 -56l-308 -262h-245 z" />
<glyph unicode="&#xd4;" horiz-adv-x="1601" d="M92 698q0 358 184.5 552t524.5 194t524 -194t184 -552q0 -350 -184 -539.5t-524 -189.5t-524.5 189.5t-184.5 539.5zM453 1505l200 318h295l201 -318h-225l-123 121l-123 -121h-225zM532 698q0 -178 68.5 -269t200.5 -91t200 91t68 269q0 186 -68 281.5t-200 95.5 t-200.5 -95.5t-68.5 -281.5z" />
<glyph unicode="&#xd5;" horiz-adv-x="1601" d="M92 698q0 358 184.5 552t524.5 194t524 -194t184 -552q0 -350 -184 -539.5t-524 -189.5t-524.5 189.5t-184.5 539.5zM442 1526q0 295 191 295q61 0 166 -34t127 -34q28 0 53 22.5t37 57.5l143 -31q-6 -135 -63 -217t-146 -82q-49 0 -139.5 33t-122.5 33q-28 0 -50.5 -23 t-31.5 -61zM532 698q0 -178 68.5 -269t200.5 -91t200 91t68 269q0 186 -68 281.5t-200 95.5t-200.5 -95.5t-68.5 -281.5z" />
<glyph unicode="&#xd6;" horiz-adv-x="1601" d="M92 698q0 358 184.5 552t524.5 194t524 -194t184 -552q0 -350 -184 -539.5t-524 -189.5t-524.5 189.5t-184.5 539.5zM406 1683q0 168 176 168t176 -168q0 -167 -176 -167t-176 167zM532 698q0 -178 68.5 -269t200.5 -91t200 91t68 269q0 186 -68 281.5t-200 95.5 t-200.5 -95.5t-68.5 -281.5zM844 1683q0 168 176 168t176 -168q0 -167 -176 -167t-176 167z" />
<glyph unicode="&#xd7;" horiz-adv-x="1163" d="M113 850l204 205l267 -271l264 269l201 -201l-269 -264l271 -266l-205 -205l-266 270l-265 -268l-200 200l268 265z" />
<glyph unicode="&#xd8;" horiz-adv-x="1601" d="M92 0l154 193q-154 189 -154 505q0 358 184.5 552t524.5 194q220 0 379 -84l43 53h286l-155 -194q155 -193 155 -521q0 -350 -184 -539.5t-524 -189.5q-220 0 -381 82l-41 -51h-287zM532 698q0 -70 13 -133l383 479q-54 31 -127 31q-132 0 -200.5 -95.5t-68.5 -281.5z M672 367q60 -29 129 -29q132 0 200 91t68 269q0 88 -14 148z" />
<glyph unicode="&#xd9;" horiz-adv-x="1536" d="M143 573v840h430v-860q0 -103 50.5 -159t144.5 -56t144.5 56t50.5 159v860h430v-840q0 -290 -162.5 -447t-462.5 -157t-462.5 157t-162.5 447zM369 1751l481 72l113 -318h-267z" />
<glyph unicode="&#xda;" horiz-adv-x="1536" d="M143 573v840h430v-860q0 -103 50.5 -159t144.5 -56t144.5 56t50.5 159v860h430v-840q0 -290 -162.5 -447t-462.5 -157t-462.5 157t-162.5 447zM594 1505l139 318l414 -56l-307 -262h-246z" />
<glyph unicode="&#xdb;" horiz-adv-x="1536" d="M143 573v840h430v-860q0 -103 50.5 -159t144.5 -56t144.5 56t50.5 159v860h430v-840q0 -290 -162.5 -447t-462.5 -157t-462.5 157t-162.5 447zM420 1505l201 318h294l201 -318h-225l-123 121l-123 -121h-225z" />
<glyph unicode="&#xdc;" horiz-adv-x="1536" d="M143 573v840h430v-860q0 -103 50.5 -159t144.5 -56t144.5 56t50.5 159v860h430v-840q0 -290 -162.5 -447t-462.5 -157t-462.5 157t-162.5 447zM373 1683q0 168 176 168t176 -168q0 -167 -176 -167t-176 167zM811 1683q0 168 176 168t176 -168q0 -167 -176 -167t-176 167z " />
<glyph unicode="&#xdd;" horiz-adv-x="1515" d="M31 1413h481l246 -522h20l256 522h451l-512 -921v-492h-430v492zM584 1505l139 318l414 -56l-308 -262h-245z" />
<glyph unicode="&#xde;" horiz-adv-x="1341" d="M154 0v1413h430v-186h82q290 0 447 -131.5t157 -374.5q0 -244 -157 -376t-447 -132h-82v-213h-430zM584 561h71q83 0 128.5 41.5t45.5 118.5q0 75 -45.5 116.5t-128.5 41.5h-71v-318z" />
<glyph unicode="&#xdf;" horiz-adv-x="1286" d="M154 0v1034q0 203 107.5 306.5t318.5 103.5q233 0 353 -106.5t120 -313.5q0 -127 -105 -268q277 -134 277 -396q0 -194 -104 -292.5t-308 -98.5q-122 0 -227 31v254q68 -12 137 -12q135 0 135 137q0 149 -217 205l-29 153q101 90 101 226q0 157 -113 157q-98 0 -98 -127 v-993h-348z" />
<glyph unicode="&#xe0;" horiz-adv-x="1038" d="M55 260q0 183 143.5 279t409.5 96v43q0 80 -137 80q-150 0 -315 -74l-64 236q90 48 212 76t233 28q207 0 313 -102.5t106 -296.5v-625h-299l-20 111q-114 -142 -295 -142q-135 0 -211 78t-76 213zM121 1331l481 72l113 -318h-266zM414 324q0 -50 26.5 -78.5t75.5 -28.5 q56 0 92 41v203q-194 0 -194 -137z" />
<glyph unicode="&#xe1;" horiz-adv-x="1038" d="M55 260q0 183 143.5 279t409.5 96v43q0 80 -137 80q-150 0 -315 -74l-64 236q90 48 212 76t233 28q207 0 313 -102.5t106 -296.5v-625h-299l-20 111q-114 -142 -295 -142q-135 0 -211 78t-76 213zM346 1085l139 318l414 -55l-307 -263h-246zM414 324q0 -50 26.5 -78.5 t75.5 -28.5q56 0 92 41v203q-194 0 -194 -137z" />
<glyph unicode="&#xe2;" horiz-adv-x="1038" d="M55 260q0 183 143.5 279t409.5 96v43q0 80 -137 80q-150 0 -315 -74l-64 236q90 48 212 76t233 28q207 0 313 -102.5t106 -296.5v-625h-299l-20 111q-114 -142 -295 -142q-135 0 -211 78t-76 213zM172 1085l201 318h295l200 -318h-225l-123 121l-123 -121h-225zM414 324 q0 -50 26.5 -78.5t75.5 -28.5q56 0 92 41v203q-194 0 -194 -137z" />
<glyph unicode="&#xe3;" horiz-adv-x="1038" d="M55 260q0 183 143.5 279t409.5 96v43q0 80 -137 80q-150 0 -315 -74l-64 236q90 48 212 76t233 28q207 0 313 -102.5t106 -296.5v-625h-299l-20 111q-114 -142 -295 -142q-135 0 -211 78t-76 213zM162 1106q0 295 190 295q61 0 166 -34t127 -34q28 0 53 22.5t37 57.5 l144 -31q-6 -135 -63 -217t-146 -82q-49 0 -139.5 33t-122.5 33q-28 0 -50.5 -23t-31.5 -61zM414 324q0 -50 26.5 -78.5t75.5 -28.5q56 0 92 41v203q-194 0 -194 -137z" />
<glyph unicode="&#xe4;" horiz-adv-x="1038" d="M55 260q0 183 143.5 279t409.5 96v43q0 80 -137 80q-150 0 -315 -74l-64 236q90 48 212 76t233 28q207 0 313 -102.5t106 -296.5v-625h-299l-20 111q-114 -142 -295 -142q-135 0 -211 78t-76 213zM125 1264q0 168 176 168t176 -168t-176 -168t-176 168zM414 324 q0 -50 26.5 -78.5t75.5 -28.5q56 0 92 41v203q-194 0 -194 -137zM563 1264q0 168 176 168t176 -168t-176 -168t-176 168z" />
<glyph unicode="&#xe5;" horiz-adv-x="1038" d="M55 260q0 183 143.5 279t409.5 96v43q0 80 -137 80q-150 0 -315 -74l-64 236q90 48 212 76t233 28q207 0 313 -102.5t106 -296.5v-625h-299l-20 111q-114 -142 -295 -142q-135 0 -211 78t-76 213zM244 1282q0 109 73.5 171.5t202.5 62.5t203 -62.5t74 -171.5 q0 -110 -74 -174t-203 -64t-202.5 64t-73.5 174zM414 324q0 -50 26.5 -78.5t75.5 -28.5q56 0 92 41v203q-194 0 -194 -137zM428 1282q0 -44 24 -69t68 -25t68 25t24 69q0 43 -24 66.5t-68 23.5t-68 -23.5t-24 -66.5z" />
<glyph unicode="&#xe6;" horiz-adv-x="1613" d="M55 260q0 183 143.5 279t409.5 96v43q0 80 -137 80q-150 0 -315 -74l-64 236q90 48 212 76t233 28q170 0 274 -72q116 72 285 72q220 0 338 -127t118 -362q0 -83 -10 -134h-586q0 -69 59.5 -107t166.5 -38q175 0 313 61l31 -256q-162 -92 -428 -92q-241 0 -369 140 q-119 -140 -346 -140q-328 0 -328 291zM414 324q0 -51 26.5 -79t75.5 -28q78 0 125 35q-35 83 -41 209q-89 0 -137.5 -35.5t-48.5 -101.5zM956 584h240q0 73 -31 113t-88 40q-58 0 -89.5 -39.5t-31.5 -113.5z" />
<glyph unicode="&#xe7;" horiz-adv-x="929" d="M61 498q0 252 129 389t367 137q220 0 328 -94l-92 -254q-88 61 -185 61q-198 0 -198 -239q0 -242 188 -242q88 0 207 78l84 -266q-106 -90 -299 -99l-37 -73q8 2 29 2q68 0 108.5 -34t40.5 -95q0 -79 -65.5 -129t-165.5 -50q-97 0 -162 45l41 82q43 -18 84 -18 q43 0 69.5 16t26.5 43q0 22 -17 34.5t-46 12.5q-38 0 -68 -12l-31 33l47 151q-186 32 -284.5 166t-98.5 355z" />
<glyph unicode="&#xe8;" d="M61 498q0 252 129 389t367 137q220 0 338.5 -127t118.5 -362q0 -83 -10 -134h-586q0 -69 59 -107t166 -38q175 0 313 61l31 -256q-162 -92 -428 -92q-239 0 -368.5 137.5t-129.5 391.5zM139 1331l482 72l112 -318h-266zM418 584h239q0 74 -30.5 113.5t-87.5 39.5 q-58 0 -89.5 -39.5t-31.5 -113.5z" />
<glyph unicode="&#xe9;" d="M61 498q0 252 129 389t367 137q220 0 338.5 -127t118.5 -362q0 -83 -10 -134h-586q0 -69 59 -107t166 -38q175 0 313 61l31 -256q-162 -92 -428 -92q-239 0 -368.5 137.5t-129.5 391.5zM365 1085l139 318l414 -55l-308 -263h-245zM418 584h239q0 74 -30.5 113.5 t-87.5 39.5q-58 0 -89.5 -39.5t-31.5 -113.5z" />
<glyph unicode="&#xea;" d="M61 498q0 252 129 389t367 137q220 0 338.5 -127t118.5 -362q0 -83 -10 -134h-586q0 -69 59 -107t166 -38q175 0 313 61l31 -256q-162 -92 -428 -92q-239 0 -368.5 137.5t-129.5 391.5zM190 1085l201 318h295l201 -318h-225l-123 121l-123 -121h-226zM418 584h239 q0 74 -30.5 113.5t-87.5 39.5q-58 0 -89.5 -39.5t-31.5 -113.5z" />
<glyph unicode="&#xeb;" d="M61 498q0 252 129 389t367 137q220 0 338.5 -127t118.5 -362q0 -83 -10 -134h-586q0 -69 59 -107t166 -38q175 0 313 61l31 -256q-162 -92 -428 -92q-239 0 -368.5 137.5t-129.5 391.5zM143 1264q0 168 176 168q87 0 132 -42.5t45 -125.5q0 -168 -177 -168 q-176 0 -176 168zM418 584h239q0 74 -30.5 113.5t-87.5 39.5q-58 0 -89.5 -39.5t-31.5 -113.5zM582 1264q0 168 176 168t176 -168t-176 -168t-176 168z" />
<glyph unicode="&#xec;" horiz-adv-x="532" d="M-133 1331l481 72l113 -318h-266zM92 0v993h348v-993h-348z" />
<glyph unicode="&#xed;" horiz-adv-x="532" d="M92 0v993h348v-993h-348zM92 1085l139 318l414 -55l-307 -263h-246z" />
<glyph unicode="&#xee;" horiz-adv-x="532" d="M-82 1085l201 318h295l200 -318h-225l-123 121l-123 -121h-225zM92 0v993h348v-993h-348z" />
<glyph unicode="&#xef;" horiz-adv-x="532" d="M-129 1264q0 168 176 168t176 -168t-176 -168t-176 168zM92 0v993h348v-993h-348zM309 1264q0 168 176 168q87 0 132 -42.5t45 -125.5q0 -168 -177 -168q-176 0 -176 168z" />
<glyph unicode="&#xf0;" horiz-adv-x="1130" d="M61 457q0 236 94 364.5t267 128.5q85 0 169 -34.5t138 -96.5h21q-12 165 -187 277l-57 -72h-213l104 143q-62 18 -131 27l43 250q142 -9 254 -51l39 53h240l-109 -137q160 -104 248 -274.5t88 -383.5q0 -327 -129 -504.5t-367 -177.5q-246 0 -379 127t-133 361zM408 455 q0 -95 38.5 -147t108.5 -52q83 0 130 86t50 244q-109 86 -196 86q-63 0 -97 -56.5t-34 -160.5z" />
<glyph unicode="&#xf1;" d="M92 0v993h287l24 -139q150 170 322 170q121 0 194.5 -70t73.5 -186v-768h-348v614q0 46 -25 74.5t-65 28.5q-27 0 -59.5 -19t-55.5 -49v-649h-348zM180 1106q0 295 191 295q61 0 166 -34t127 -34q28 0 53 22.5t37 57.5l143 -31q-6 -135 -63 -217t-146 -82 q-49 0 -139.5 33t-122.5 33q-28 0 -50.5 -23t-31.5 -61z" />
<glyph unicode="&#xf2;" horiz-adv-x="1126" d="M61 498q0 252 130.5 389t371.5 137t371.5 -137t130.5 -389q0 -254 -130.5 -391.5t-371.5 -137.5t-371.5 137.5t-130.5 391.5zM164 1331l481 72l113 -318h-266zM410 498q0 -242 153 -242q154 0 154 242q0 239 -154 239q-153 0 -153 -239z" />
<glyph unicode="&#xf3;" horiz-adv-x="1126" d="M61 498q0 252 130.5 389t371.5 137t371.5 -137t130.5 -389q0 -254 -130.5 -391.5t-371.5 -137.5t-371.5 137.5t-130.5 391.5zM389 1085l139 318l414 -55l-307 -263h-246zM410 498q0 -242 153 -242q154 0 154 242q0 239 -154 239q-153 0 -153 -239z" />
<glyph unicode="&#xf4;" horiz-adv-x="1126" d="M61 498q0 252 130.5 389t371.5 137t371.5 -137t130.5 -389q0 -254 -130.5 -391.5t-371.5 -137.5t-371.5 137.5t-130.5 391.5zM215 1085l201 318h295l200 -318h-225l-123 121l-123 -121h-225zM410 498q0 -242 153 -242q154 0 154 242q0 239 -154 239q-153 0 -153 -239z " />
<glyph unicode="&#xf5;" horiz-adv-x="1126" d="M61 498q0 252 130.5 389t371.5 137t371.5 -137t130.5 -389q0 -254 -130.5 -391.5t-371.5 -137.5t-371.5 137.5t-130.5 391.5zM205 1106q0 295 190 295q61 0 166 -34t127 -34q28 0 53 22.5t37 57.5l144 -31q-6 -135 -63 -217t-146 -82q-49 0 -139.5 33t-122.5 33 q-28 0 -50.5 -23t-31.5 -61zM410 498q0 -242 153 -242q154 0 154 242q0 239 -154 239q-153 0 -153 -239z" />
<glyph unicode="&#xf6;" horiz-adv-x="1126" d="M61 498q0 252 130.5 389t371.5 137t371.5 -137t130.5 -389q0 -254 -130.5 -391.5t-371.5 -137.5t-371.5 137.5t-130.5 391.5zM168 1264q0 168 176 168t176 -168t-176 -168t-176 168zM410 498q0 -242 153 -242q154 0 154 242q0 239 -154 239q-153 0 -153 -239zM606 1264 q0 168 176 168t176 -168t-176 -168t-176 168z" />
<glyph unicode="&#xf7;" horiz-adv-x="1167" d="M113 436v297h942v-297h-942zM420 164q0 69 45 111t119 42t119 -42t45 -111t-45.5 -111.5t-118.5 -42.5t-118.5 42.5t-45.5 111.5zM420 1006q0 69 45 111t119 42t119 -42t45 -111t-45.5 -111.5t-118.5 -42.5t-118.5 42.5t-45.5 111.5z" />
<glyph unicode="&#xf8;" horiz-adv-x="1126" d="M61 0l109 133q-109 133 -109 365q0 252 130.5 389t371.5 137q168 0 283 -68l28 37h191l-109 -131q109 -136 109 -364q0 -254 -130.5 -391.5t-371.5 -137.5q-167 0 -282 68l-29 -37h-191zM410 498q0 -28 4 -68l231 283q-35 24 -82 24q-153 0 -153 -239zM481 281 q36 -25 82 -25q154 0 154 242q0 25 -4 65z" />
<glyph unicode="&#xf9;" horiz-adv-x="1077" d="M84 225v768h348v-614q0 -46 25 -74.5t65 -28.5q27 0 59.5 19t55.5 49v649h348v-993h-287l-24 139q-150 -170 -322 -170q-121 0 -194.5 70t-73.5 186zM139 1331l482 72l112 -318h-266z" />
<glyph unicode="&#xfa;" horiz-adv-x="1077" d="M84 225v768h348v-614q0 -46 25 -74.5t65 -28.5q27 0 59.5 19t55.5 49v649h348v-993h-287l-24 139q-150 -170 -322 -170q-121 0 -194.5 70t-73.5 186zM365 1085l139 318l414 -55l-308 -263h-245z" />
<glyph unicode="&#xfb;" horiz-adv-x="1077" d="M84 225v768h348v-614q0 -46 25 -74.5t65 -28.5q27 0 59.5 19t55.5 49v649h348v-993h-287l-24 139q-150 -170 -322 -170q-121 0 -194.5 70t-73.5 186zM190 1085l201 318h295l201 -318h-225l-123 121l-123 -121h-226z" />
<glyph unicode="&#xfc;" horiz-adv-x="1077" d="M84 225v768h348v-614q0 -46 25 -74.5t65 -28.5q27 0 59.5 19t55.5 49v649h348v-993h-287l-24 139q-150 -170 -322 -170q-121 0 -194.5 70t-73.5 186zM143 1264q0 168 176 168q87 0 132 -42.5t45 -125.5q0 -168 -177 -168q-176 0 -176 168zM582 1264q0 168 176 168 t176 -168t-176 -168t-176 168z" />
<glyph unicode="&#xfd;" horiz-adv-x="1095" d="M20 993h390l161 -565l146 565h358l-348 -993q-144 -410 -457 -410q-61 0 -147 13l-45 282q27 -8 72 -8q206 0 219 123zM365 1085l139 318l414 -55l-308 -263h-245z" />
<glyph unicode="&#xfe;" horiz-adv-x="1132" d="M92 -410v1823h348v-477q88 88 246 88q76 0 144.5 -34t122.5 -97t86 -163.5t32 -223.5q0 -255 -99.5 -396t-273.5 -141q-158 0 -258 133v-512h-348zM440 301q51 -45 117 -45q75 0 115.5 62.5t40.5 179.5q0 116 -40.5 177.5t-115.5 61.5q-68 0 -117 -43v-393z" />
<glyph unicode="&#xff;" horiz-adv-x="1095" d="M20 993h390l161 -565l146 565h358l-348 -993q-144 -410 -457 -410q-61 0 -147 13l-45 282q27 -8 72 -8q206 0 219 123zM143 1264q0 168 176 168q87 0 132 -42.5t45 -125.5q0 -168 -177 -168q-176 0 -176 168zM582 1264q0 168 176 168t176 -168t-176 -168t-176 168z" />
<glyph unicode="&#x152;" horiz-adv-x="2164" d="M92 707q0 351 171.5 544t477.5 193q258 0 363 -144v113h928v-348h-523v-182h441v-348h-441v-187h533v-348h-938v113q-114 -144 -365 -144q-304 0 -475.5 193t-171.5 545zM532 705q0 -182 68 -274.5t201 -92.5q268 0 268 367q0 182 -68 276t-200 94t-200.5 -94t-68.5 -276 z" />
<glyph unicode="&#x153;" horiz-adv-x="1730" d="M61 498q0 252 130.5 389t371.5 137q201 0 326 -96q125 96 323 96q220 0 338.5 -127t118.5 -362q0 -83 -10 -134h-586q0 -69 59 -107t166 -38q176 0 314 61l30 -256q-162 -92 -428 -92q-200 0 -323 97q-129 -97 -328 -97q-241 0 -371.5 137.5t-130.5 391.5zM410 498 q0 -242 153 -242q154 0 154 242q0 239 -154 239q-153 0 -153 -239zM1073 584h240q0 73 -31 113t-88 40q-58 0 -89.5 -39.5t-31.5 -113.5z" />
<glyph unicode="&#x178;" horiz-adv-x="1515" d="M31 1413h481l246 -522h20l256 522h451l-512 -921v-492h-430v492zM362 1683q0 83 45 125.5t132 42.5q176 0 176 -168q0 -167 -176 -167q-177 0 -177 167zM801 1683q0 168 176 168t176 -168q0 -167 -176 -167t-176 167z" />
<glyph unicode="&#x2c6;" horiz-adv-x="1228" d="M215 1085l201 318h295l200 -318h-225l-123 121l-123 -121h-225z" />
<glyph unicode="&#x2dc;" horiz-adv-x="1228" d="M113 1106q0 295 190 295q61 0 166 -34t127 -34q28 0 53 22.5t37 57.5l143 -31q-6 -135 -62.5 -217t-145.5 -82q-49 0 -140 33t-123 33q-28 0 -50.5 -23t-31.5 -61z" />
<glyph unicode="&#x2000;" horiz-adv-x="967" />
<glyph unicode="&#x2001;" horiz-adv-x="1935" />
<glyph unicode="&#x2002;" horiz-adv-x="967" />
<glyph unicode="&#x2003;" horiz-adv-x="1935" />
<glyph unicode="&#x2004;" horiz-adv-x="645" />
<glyph unicode="&#x2005;" horiz-adv-x="483" />
<glyph unicode="&#x2006;" horiz-adv-x="322" />
<glyph unicode="&#x2007;" horiz-adv-x="322" />
<glyph unicode="&#x2008;" horiz-adv-x="241" />
<glyph unicode="&#x2009;" horiz-adv-x="387" />
<glyph unicode="&#x200a;" horiz-adv-x="107" />
<glyph unicode="&#x2010;" horiz-adv-x="727" d="M72 451v348h583v-348h-583z" />
<glyph unicode="&#x2011;" horiz-adv-x="727" d="M72 451v348h583v-348h-583z" />
<glyph unicode="&#x2012;" horiz-adv-x="727" d="M72 451v348h583v-348h-583z" />
<glyph unicode="&#x2013;" horiz-adv-x="921" d="M72 451v348h778v-348h-778z" />
<glyph unicode="&#x2014;" horiz-adv-x="1699" d="M72 451v348h1556v-348h-1556z" />
<glyph unicode="&#x2018;" horiz-adv-x="540" d="M31 707l166 706h262l-39 -706h-389z" />
<glyph unicode="&#x2019;" horiz-adv-x="540" d="M82 707l39 706h389l-166 -706h-262z" />
<glyph unicode="&#x201a;" horiz-adv-x="1228" d="M49 -221l74 610h397l-248 -665z" />
<glyph unicode="&#x201c;" horiz-adv-x="1042" d="M31 707l166 706h262l-39 -706h-389zM532 707l166 706h263l-39 -706h-390z" />
<glyph unicode="&#x201d;" horiz-adv-x="1042" d="M82 707l39 706h389l-166 -706h-262zM584 707l39 706h389l-166 -706h-262z" />
<glyph unicode="&#x201e;" horiz-adv-x="1228" d="M49 -221l74 610h397l-248 -665z" />
<glyph unicode="&#x2022;" horiz-adv-x="1038" d="M154 707q0 209 79.5 288.5t286.5 79.5t286 -79.5t79 -288.5t-79 -289t-286 -80t-286.5 80t-79.5 289z" />
<glyph unicode="&#x2026;" horiz-adv-x="1652" d="M72 184q0 106 54.5 160.5t160.5 54.5q213 0 213 -215t-213 -215q-106 0 -160.5 54.5t-54.5 160.5zM612 184q0 106 54.5 160.5t160.5 54.5q213 0 213 -215t-213 -215q-106 0 -160.5 54.5t-54.5 160.5zM1153 184q0 106 54.5 160.5t160.5 54.5q213 0 213 -215t-213 -215 q-106 0 -160.5 54.5t-54.5 160.5z" />
<glyph unicode="&#x202f;" horiz-adv-x="387" />
<glyph unicode="&#x2039;" horiz-adv-x="704" d="M31 496l295 497h317l-211 -497l211 -496h-317z" />
<glyph unicode="&#x203a;" horiz-adv-x="704" d="M61 0l211 496l-211 497h318l295 -497l-295 -496h-318z" />
<glyph unicode="&#x205f;" horiz-adv-x="483" />
<glyph unicode="&#x20ac;" horiz-adv-x="1253" d="M-20 508l26 149h86v41q0 38 2 56h-71l26 149h62q50 262 227 401.5t463 139.5q253 0 401 -96l-104 -353q-127 80 -277 80q-197 0 -258 -172h508l-45 -149h-491q-3 -27 -3 -56v-41h476l-43 -149h-408q29 -86 94 -128t170 -42q136 0 248 61l133 -338q-179 -92 -401 -92 q-290 0 -468 139t-224 400h-129z" />
<glyph unicode="&#x2122;" horiz-adv-x="1605" d="M51 1237v176h606v-176h-194v-530h-217v530h-195zM672 707l45 706h287l102 -424h10l109 424h264l55 -706h-215l-20 405h-11l-94 -405h-219l-86 405h-10l-19 -405h-198z" />
<glyph unicode="&#x25fc;" horiz-adv-x="993" d="M0 0v993h993v-993h-993z" />
</font>
</defs>
</svg>
