<?xml version="1.0" encoding="utf-8"?>
<!-- Generator: Adobe Illustrator 27.2.0, SVG Export Plug-In . SVG Version: 6.00 Build 0)  -->
<svg version="1.1" id="Layer_1" xmlns="http://www.w3.org/2000/svg" xmlns:xlink="http://www.w3.org/1999/xlink" x="0px" y="0px"
	 viewBox="0 0 231.35 249.36" style="enable-background:new 0 0 231.35 249.36;" xml:space="preserve">
<style type="text/css">
	.st0{display:none;}
	.st1{display:inline;fill:none;stroke:#C8982C;stroke-miterlimit:10;}
	.st2{display:inline;}
	.st3{fill:none;stroke:#C8982C;stroke-miterlimit:10;}
	.st4{fill:#4A4F55;}
	.st5{clip-path:url(#SVGID_00000016790791986376470680000011344602671485971872_);fill:#4A4F55;}
	.st6{fill:#C8982C;}
	.st7{display:inline;fill:#C8982C;}
	.st8{fill:#FFFFFF;}
</style>
<rect x="-558.47" y="672.71" style="fill:none;" width="271.97" height="43.62"/>
<text transform="matrix(1 0 0 1 -558.4687 682.1441)"><tspan x="0" y="0" class="st4" style="font-family:'Baskerville-SemiBold'; font-size:14px;">Phone:</tspan><tspan x="44.47" y="0" class="st4" style="font-family:'Baskerville'; font-size:14px;"> 289.553.7009   </tspan><tspan x="0" y="18" class="st4" style="font-family:'Baskerville-SemiBold'; font-size:14px;">Mobile: </tspan><tspan x="53.1" y="18" class="st4" style="font-family:'Baskerville'; font-size:14px;">416.400.0755</tspan></text>
<g class="st0">
	<line class="st1" x1="428.44" y1="240.74" x2="246.53" y2="240.74"/>
	<g class="st2">
		<line class="st3" x1="421.81" y1="240.74" x2="410.38" y2="252.16"/>
		<line class="st3" x1="428.44" y1="240.74" x2="417.02" y2="229.31"/>
		<line class="st3" x1="410.38" y1="240.74" x2="398.96" y2="252.16"/>
		<line class="st3" x1="417.02" y1="240.74" x2="405.59" y2="229.31"/>
	</g>
</g>
<g>
	<polygon class="st4" points="26.67,185.6 35.95,185.6 35.95,186.49 28.61,186.49 28.61,192.26 35.04,192.26 35.04,193.15 
		28.61,193.15 28.61,200.24 26.67,200.24 26.67,185.6 	"/>
	<path class="st4" d="M42.16,192.92c0,4.87,2.92,6.84,5.75,6.84c2.83,0,5.75-1.97,5.75-6.84c0-4.87-2.92-6.84-5.75-6.84
		C45.08,186.08,42.16,188.05,42.16,192.92L42.16,192.92z M55.83,192.92c0,4.63-3.63,7.57-7.92,7.57s-7.92-2.94-7.92-7.57
		c0-4.63,3.63-7.57,7.92-7.57S55.83,188.29,55.83,192.92L55.83,192.92z"/>
	<path class="st4" d="M65.85,192.39c2.58,0,4.2-0.54,4.2-2.98c0-2.44-1.62-2.98-4.2-2.98h-1.36v5.95H65.85L65.85,192.39z
		 M64.49,200.24h-1.93V185.6h3.42c3.22,0,6.25,0.71,6.25,3.81c0,2.38-1.75,3.31-3.98,3.66l5.65,7.16h-2.38l-5.54-7.01h-1.49V200.24
		L64.49,200.24z"/>
	<polygon class="st4" points="80.13,185.6 89.41,185.6 89.41,186.49 82.07,186.49 82.07,192.26 88.5,192.26 88.5,193.15 
		82.07,193.15 82.07,199.35 89.41,199.35 89.41,200.24 80.13,200.24 80.13,185.6 	"/>
	<path class="st4" d="M100.79,193.7l-1.41-0.48c-2.59-0.87-3.59-2.29-3.59-4.13c0-2.23,2.1-3.74,4.78-3.74
		c1.58,0,2.99,0.33,4.05,0.84v3.14h-0.19c-0.67-2.18-2.05-3.25-3.85-3.25c-1.93,0-3.09,0.99-3.09,2.4c0,1.26,0.5,2.14,2.36,2.85
		l1.41,0.48c2.31,0.8,4.46,1.86,4.46,4.45c0,2.47-1.97,4.24-5.3,4.24c-1.86,0-3.4-0.39-4.65-1.15l-0.06-3.25h0.19
		c0.8,2.53,2.19,3.68,4.45,3.68c2.42,0,3.65-1.26,3.65-2.83C104.01,195.43,103.12,194.5,100.79,193.7L100.79,193.7z"/>
	<polygon class="st4" points="117.34,200.24 115.41,200.24 115.41,186.49 110.2,186.49 110.2,185.6 122.55,185.6 122.55,186.49 
		117.34,186.49 117.34,200.24 	"/>
	<path class="st4" d="M149.74,198.28c-1.06,1.21-3.35,2.21-6.38,2.21c-4.3,0-7.85-2.94-7.85-7.57c0-4.63,3.55-7.57,7.85-7.57
		c2.29,0,4.43,0.56,5.62,1.43v2.75h-0.19c-1.19-3.05-3.42-3.46-5.43-3.46c-2.83,0-5.67,1.97-5.67,6.84c0,5.21,3.11,6.84,5.88,6.84
		c1.86,0,3.5-0.6,4.24-1.32v-4.35h-2.9v-0.95h4.84V198.28L149.74,198.28z"/>
	<path class="st4" d="M158.38,193.93h4.97l-2.47-6.3L158.38,193.93L158.38,193.93z M163.83,195.2h-5.95l-1.99,5.04h-1l5.75-14.64
		h1.45l5.75,14.64h-2.03L163.83,195.2L163.83,195.2z"/>
	<polygon class="st4" points="177.52,200.24 175.58,200.24 175.58,186.49 170.37,186.49 170.37,185.6 182.72,185.6 182.72,186.49 
		177.52,186.49 177.52,200.24 	"/>
	<g>
		<defs>
			<rect id="SVGID_1_" x="-49.47" y="165.27" width="247.7" height="55.3"/>
		</defs>
		<clipPath id="SVGID_00000145737886252384520360000009480173477157792955_">
			<use xlink:href="#SVGID_1_"  style="overflow:visible;"/>
		</clipPath>
		<polygon style="clip-path:url(#SVGID_00000145737886252384520360000009480173477157792955_);fill:#4A4F55;" points="188.95,185.6 
			198.23,185.6 198.23,186.49 190.89,186.49 190.89,192.26 197.32,192.26 197.32,193.15 190.89,193.15 190.89,199.35 198.23,199.35 
			198.23,200.24 188.95,200.24 188.95,185.6 		"/>
	</g>
</g>
<path class="st6" d="M110.62,160.4c-2.73,0-5.42-0.2-8.06-0.54V117.1l22.98,24.41v-3.41l-22.98-24.41v-25.6l22.98,22.34v15.32h2.34
	v-35.8l21.53-21.92v-3.34L127.88,86.6V37.23c26.26,7.52,45.55,31.73,45.55,60.37C173.43,132.23,145.25,160.4,110.62,160.4
	L110.62,160.4z M47.82,97.6c0-34.63,28.17-62.8,62.8-62.8c5.14,0,10.13,0.63,14.92,1.8v33.89l-22.87-22.24v3.26l22.87,22.24v33.41
	l-22.98-22.34V71.31l-30.73,30.73v3.31l28.39-28.39v20.69l-28.39,29.19v3.36L100.22,101v58.53C70.53,154.55,47.82,128.69,47.82,97.6
	L47.82,97.6z M110.62,32.46c-35.92,0-65.14,29.22-65.14,65.14c0,35.92,29.22,65.14,65.14,65.14c35.92,0,65.14-29.22,65.14-65.14
	C175.77,61.68,146.54,32.46,110.62,32.46L110.62,32.46z"/>
<g class="st0">
	<rect x="239.51" y="174.26" class="st7" width="14.62" height="16.36"/>
	<g class="st2">
		<path class="st8" d="M249.19,175.94h-5.02c-0.72,0-1.31,0.59-1.31,1.31v10.38c0,0.72,0.59,1.31,1.31,1.31h5.02
			c0.72,0,1.31-0.59,1.31-1.31v-10.38C250.5,176.53,249.92,175.94,249.19,175.94z M250.11,187.63c0,0.51-0.41,0.92-0.92,0.92h-5.02
			c-0.51,0-0.92-0.41-0.92-0.92v-10.38c0-0.51,0.41-0.92,0.92-0.92h5.02c0.51,0,0.92,0.41,0.92,0.92V187.63z"/>
		<path class="st8" d="M248.86,178.15h-4.35c-0.29,0-0.53,0.24-0.53,0.53v7.5c0,0.29,0.24,0.53,0.53,0.53h4.35
			c0.29,0,0.53-0.24,0.53-0.53v-7.5C249.39,178.39,249.15,178.15,248.86,178.15z M249,186.18c0,0.08-0.06,0.14-0.14,0.14h-4.35
			c-0.08,0-0.14-0.06-0.14-0.14v-7.5c0-0.08,0.06-0.14,0.14-0.14h4.35c0.08,0,0.14,0.06,0.14,0.14V186.18z"/>
		<path class="st8" d="M246.68,186.99c-0.35,0-0.64,0.29-0.64,0.64c0,0.35,0.29,0.64,0.64,0.64c0.35,0,0.64-0.29,0.64-0.64
			C247.33,187.28,247.04,186.99,246.68,186.99z M246.68,187.88c-0.14,0-0.25-0.11-0.25-0.25s0.11-0.25,0.25-0.25
			c0.14,0,0.25,0.11,0.25,0.25S246.82,187.88,246.68,187.88z"/>
		<path class="st8" d="M245.26,177.43h2.85c0.11,0,0.19-0.09,0.19-0.19c0-0.11-0.09-0.19-0.19-0.19h-2.85
			c-0.11,0-0.19,0.09-0.19,0.19C245.06,177.34,245.15,177.43,245.26,177.43z"/>
	</g>
</g>
<g class="st0">
	<rect x="239.59" y="155.79" class="st7" width="14.53" height="16.26"/>
	<g class="st2">
		<path class="st8" d="M250.72,165.79c-0.26-0.46-0.85-0.63-1.31-0.37l-0.68,0.39c-0.7,0.39-1.64-0.82-2.04-1.52
			c-0.68-1.2-0.83-2.4-0.33-2.68l0.68-0.39c0.46-0.26,0.63-0.85,0.37-1.31l-0.97-1.73c-0.13-0.22-0.33-0.39-0.58-0.45
			c-0.25-0.07-0.51-0.04-0.73,0.09l-0.68,0.39c-1.04,0.59-1.56,1.69-1.51,3.19c0.04,1.28,0.51,2.77,1.31,4.19
			c1.02,1.81,2.58,3.44,4.18,3.89c0.75,0.21,1.51,0.16,2.23-0.25l0.68-0.39c0.22-0.13,0.39-0.33,0.45-0.58
			c0.07-0.25,0.04-0.51-0.09-0.73L250.72,165.79z M245.36,158.25c0.22-0.12,0.51-0.04,0.63,0.18l0.97,1.73
			c0.13,0.22,0.05,0.51-0.18,0.63l-0.47,0.26l-1.43-2.53L245.36,158.25z M244.67,165.32c-1.37-2.42-1.84-5.39-0.2-6.56l1.44,2.55
			c-0.65,0.63-0.3,2.06,0.35,3.21c0.5,0.89,1.5,2.1,2.49,1.81l1.44,2.55C248.32,169.68,246.03,167.75,244.67,165.32z M251.08,168.39
			l-0.47,0.26l-1.43-2.53l0.47-0.26c0.22-0.13,0.51-0.05,0.63,0.18l0.97,1.73c0.06,0.11,0.08,0.23,0.04,0.35
			C251.27,168.23,251.19,168.33,251.08,168.39z"/>
	</g>
</g>
</svg>
